HIERARCHY
ROOT hip
{
	OFFSET 0.000000 0.000000 0.000000
	CHANNELS 6 Xposition Yposition Zposition Xrotation Zrotation Yrotation 
	JOINT abdomen
	{
		OFFSET 0.000000 3.422050 0.000000
		CHANNELS 3 Xrotation Zrotation Yrotation 
		JOINT chest
		{
			OFFSET 0.000000 8.486693 -0.684411
			CHANNELS 3 Xrotation Zrotation Yrotation 
			JOINT neck
			{
				OFFSET 0.000000 10.266162 -0.273764
				CHANNELS 3 Xrotation Zrotation Yrotation 
				JOINT head
				{
					OFFSET 0.000000 3.148285 0.000000
					CHANNELS 3 Xrotation Zrotation Yrotation 
					End Site
					{
						OFFSET 0.000000 3.148289 0.000000
					}
				}
			}
			JOINT lCollar
			{
				OFFSET 3.422053 6.707223 -0.821293
				CHANNELS 3 Yrotation Zrotation Xrotation 
				JOINT lShldr
				{
					OFFSET 3.285171 0.000000 0.000000
					CHANNELS 3 Zrotation Yrotation Xrotation 
					JOINT lForeArm
					{
						OFFSET 10.129278 0.000000 0.000000
						CHANNELS 3 Yrotation Zrotation Xrotation 
						JOINT lHand
						{
							OFFSET 8.486692 0.000000 0.000000
							CHANNELS 3 Zrotation Yrotation Xrotation 
							End Site
							{
								OFFSET 4.106464 0.000000 0.000000
							}
						}
					}
				}
			}
			JOINT rCollar
			{
				OFFSET -3.558935 6.707223 -0.821293
				CHANNELS 3 Yrotation Zrotation Xrotation 
				JOINT rShldr
				{
					OFFSET -3.148289 0.000000 0.000000
					CHANNELS 3 Zrotation Yrotation Xrotation 
					JOINT rForeArm
					{
						OFFSET -10.266159 0.000000 0.000000
						CHANNELS 3 Yrotation Zrotation Xrotation 
						JOINT rHand
						{
							OFFSET -8.349810 0.000000 0.000000
							CHANNELS 3 Zrotation Yrotation Xrotation 
							End Site
							{
								OFFSET -4.106464 0.000000 0.000000
							}
						}
					}
				}
			}
		}
	}
	JOINT lThigh
	{
		OFFSET 5.338403 -1.642589 1.368821
		CHANNELS 3 Xrotation Zrotation Yrotation 
		JOINT lShin
		{
			OFFSET -2.053232 -20.121670 0.000000
			CHANNELS 3 Xrotation Zrotation Yrotation 
			JOINT lFoot
			{
				OFFSET 0.000000 -19.300380 -1.231939
				CHANNELS 3 Xrotation Yrotation Zrotation 
				End Site
				{
					OFFSET 0.000000 -2.463878 4.653993
				}
			}
		}
	}
	JOINT rThigh
	{
		OFFSET -5.338403 -1.642589 1.368821
		CHANNELS 3 Xrotation Zrotation Yrotation 
		JOINT rShin
		{
			OFFSET 2.053232 -20.121670 0.000000
			CHANNELS 3 Xrotation Zrotation Yrotation 
			JOINT rFoot
			{
				OFFSET 0.000000 -19.300380 -1.231939
				CHANNELS 3 Xrotation Yrotation Zrotation 
				End Site
				{
					OFFSET 0.000000 -2.463878 4.653993
				}
			}
		}
	}
}
MOTION
Frames: 16
Frame Time: 0.033264
0.000000 6.459362 0.000000 -90.001343 -0.002114 46.999653 -0.659064 -0.139722 -28.401104 -0.812227 0.188990 -21.020029 18.189365 0.993343 -20.227253 -11.115227 19.934464 -0.108277 2.790642 -28.388258 0.613955 -54.482674 -46.819626 13.176124 -10.094643 -21.468260 18.097086 -27.695942 -8.903371 7.859488 -2.070436 -20.943954 -6.694089 -28.857573 3.356458 -5.664369 -166.351227 -70.714798 60.107258 6.996825 0.000000 0.000000 -21.206623 7.726190 -22.059885 15.212472 -6.428586 -0.433561 13.611595 2.328721 5.489282 -5.258473 -11.285511 -24.249668 57.715637 4.734637 -0.412670 23.422083 -1.952469 -4.545708 
0.000000 6.459362 0.000000 -90.001343 -0.002114 46.999653 -0.659064 -0.139722 -28.401102 -0.812227 0.188990 -21.020029 18.191809 0.944463 -20.230072 -11.116420 19.811001 -0.109404 2.790642 -28.388256 0.613955 -54.482666 -46.819626 13.176122 -10.095595 -21.660328 18.098116 -27.695942 -8.903371 7.859488 -2.070436 -20.943953 -6.694089 -28.857573 3.356458 -5.664369 -166.351227 -70.714798 60.107258 6.996825 0.000000 0.000000 -21.189472 7.772470 -21.921345 15.212471 -6.428585 -0.433561 13.611595 2.328721 5.489282 -5.258473 -11.285510 -24.249664 57.715637 4.734636 -0.412670 23.422083 -1.952469 -4.545708 
0.000000 6.459362 0.000000 -90.001343 -0.002114 46.999653 -0.659064 -0.139722 -28.401102 -0.812227 0.188990 -21.020029 18.194254 0.895583 -20.232891 -11.117614 19.687538 -0.110528 2.790642 -28.388256 0.613955 -54.482666 -46.819626 13.176122 -10.096548 -21.852430 18.099144 -27.695942 -8.903371 7.859488 -2.070436 -20.943953 -6.694089 -28.857573 3.356458 -5.664369 -166.351227 -70.714798 60.107258 6.996825 0.000000 0.000000 -21.172207 7.818717 -21.782755 15.212471 -6.428585 -0.433561 13.611595 2.328721 5.489282 -5.258473 -11.285510 -24.249664 57.715637 4.734636 -0.412670 23.422083 -1.952469 -4.545708 
0.000000 6.459362 0.000000 -90.001343 -0.002114 46.999653 -0.659064 -0.139722 -28.401102 -0.812227 0.188990 -21.020029 18.196703 0.846702 -20.235718 -11.118805 19.564060 -0.111648 2.790642 -28.388256 0.613955 -54.482666 -46.819626 13.176122 -10.097496 -22.044561 18.100170 -27.695942 -8.903371 7.859488 -2.070436 -20.943953 -6.694089 -28.857573 3.356458 -5.664369 -166.351227 -70.714798 60.107258 6.996825 0.000000 0.000000 -21.154816 7.864924 -21.644108 15.212469 -6.428585 -0.433561 13.611595 2.328721 5.489282 -5.258473 -11.285510 -24.249664 57.715637 4.734636 -0.412670 23.422083 -1.952469 -4.545708 
0.000000 6.459362 0.000000 -90.001343 -0.002114 46.999653 -0.659064 -0.139722 -28.401104 -0.812227 0.188990 -21.020029 18.199156 0.797822 -20.238548 -11.119990 19.440580 -0.112765 2.790642 -28.388258 0.613955 -54.482666 -46.819626 13.176122 -10.098439 -22.236719 18.101191 -27.695942 -8.903371 7.859488 -2.070436 -20.943953 -6.694089 -28.857573 3.356458 -5.664369 -166.351227 -70.714798 60.107258 6.996825 0.000000 0.000000 -21.137312 7.911101 -21.505417 15.212469 -6.428585 -0.433561 13.611595 2.328721 5.489282 -5.258473 -11.285510 -24.249664 57.715637 4.734636 -0.412670 23.422083 -1.952469 -4.545708 
0.000000 6.459362 0.000000 -90.001343 -0.002114 46.999653 -0.659064 -0.139722 -28.401102 -0.812227 0.188990 -21.020029 18.201611 0.748940 -20.241377 -11.121173 19.317087 -0.113877 2.790642 -28.388254 0.613955 -54.482666 -46.819626 13.176122 -10.099385 -22.428917 18.102215 -27.695942 -8.903371 7.859488 -2.070436 -20.943953 -6.694089 -28.857573 3.356458 -5.664369 -166.351227 -70.714798 60.107258 6.996825 0.000000 0.000000 -21.119696 7.957240 -21.366682 15.212469 -6.428585 -0.433561 13.611595 2.328721 5.489282 -5.258474 -11.285511 -24.249666 57.715637 4.734636 -0.412670 23.422083 -1.952469 -4.545708 
0.000000 6.459362 0.000000 -90.001343 -0.002114 46.999653 -0.659064 -0.139722 -28.401098 -0.812227 0.188990 -21.020029 18.204062 0.700058 -20.244202 -11.122354 19.193584 -0.114987 2.790642 -28.388256 0.613955 -54.482666 -46.819626 13.176122 -10.100327 -22.621145 18.103241 -27.695942 -8.903371 7.859488 -2.070436 -20.943953 -6.694089 -28.857573 3.356458 -5.664369 -166.351227 -70.714798 60.107258 6.996825 0.000000 0.000000 -21.101961 8.003345 -21.227900 15.212469 -6.428585 -0.433561 13.611595 2.328721 5.489282 -5.258474 -11.285511 -24.249666 57.715637 4.734636 -0.412670 23.422083 -1.952469 -4.545708 
0.000000 6.459362 0.000000 -90.001343 -0.002114 46.999653 -0.659064 -0.139722 -28.401102 -0.812227 0.188990 -21.020029 18.206518 0.651175 -20.247034 -11.123531 19.070078 -0.116093 2.790642 -28.388256 0.613955 -54.482666 -46.819626 13.176122 -10.101268 -22.813395 18.104256 -27.695942 -8.903371 7.859488 -2.070436 -20.943953 -6.694089 -28.857573 3.356458 -5.664369 -166.351227 -70.714798 60.107258 6.996825 0.000000 0.000000 -21.084105 8.049410 -21.089060 15.212469 -6.428585 -0.433561 13.611595 2.328721 5.489282 -5.258472 -11.285509 -24.249664 57.715637 4.734636 -0.412670 23.422083 -1.952469 -4.545708 
0.000000 6.459362 0.000000 -90.001343 -0.002114 46.999653 -0.659064 -0.139722 -28.401098 -0.812227 0.188990 -21.020029 18.208979 0.602293 -20.249870 -11.124702 18.946556 -0.117196 2.790642 -28.388258 0.613955 -54.482666 -46.819626 13.176122 -10.102202 -23.005671 18.105272 -27.695942 -8.903371 7.859488 -2.070436 -20.943953 -6.694089 -28.857573 3.356458 -5.664369 -166.351227 -70.714798 60.107258 6.996825 0.000000 0.000000 -21.066135 8.095438 -20.950180 15.212469 -6.428585 -0.433561 13.611595 2.328721 5.489282 -5.258473 -11.285510 -24.249664 57.715637 4.734636 -0.412670 23.422083 -1.952469 -4.545708 
0.000000 6.459362 0.000000 -90.001343 -0.002114 46.999653 -0.659064 -0.139722 -28.401104 -0.812227 0.188990 -21.020029 18.211447 0.553410 -20.252712 -11.125875 18.823036 -0.118296 2.790642 -28.388254 0.613955 -54.482666 -46.819626 13.176122 -10.103139 -23.197975 18.106289 -27.695942 -8.903371 7.859488 -2.070436 -20.943953 -6.694089 -28.857573 3.356458 -5.664369 -166.351227 -70.714798 60.107258 6.996825 0.000000 0.000000 -21.048046 8.141429 -20.811247 15.212471 -6.428585 -0.433561 13.611595 2.328721 5.489282 -5.258473 -11.285510 -24.249664 57.715637 4.734636 -0.412670 23.422083 -1.952469 -4.545708 
0.000000 6.459362 0.000000 -90.001343 -0.002114 46.999653 -0.659064 -0.139722 -28.401102 -0.812227 0.188990 -21.020029 18.213907 0.504526 -20.255547 -11.127041 18.699505 -0.119391 2.790642 -28.388256 0.613955 -54.482666 -46.819626 13.176122 -10.104074 -23.390303 18.107306 -27.695942 -8.903371 7.859488 -2.070436 -20.943953 -6.694089 -28.857573 3.356458 -5.664369 -166.351227 -70.714798 60.107258 6.996825 0.000000 0.000000 -21.029840 8.187381 -20.672270 15.212471 -6.428585 -0.433561 13.611595 2.328721 5.489282 -5.258473 -11.285510 -24.249664 57.715637 4.734636 -0.412670 23.422083 -1.952469 -4.545708 
0.000000 6.459362 0.000000 -90.001343 -0.002114 46.999653 -0.659064 -0.139722 -28.401104 -0.812227 0.188990 -21.020029 18.216373 0.455643 -20.258387 -11.128204 18.575966 -0.120484 2.790642 -28.388256 0.613955 -54.482666 -46.819626 13.176122 -10.105000 -23.582649 18.108315 -27.695942 -8.903371 7.859488 -2.070436 -20.943953 -6.694089 -28.857573 3.356458 -5.664369 -166.351227 -70.714798 60.107258 6.996825 0.000000 0.000000 -21.011520 8.233296 -20.533247 15.212471 -6.428585 -0.433561 13.611595 2.328721 5.489282 -5.258474 -11.285511 -24.249666 57.715637 4.734636 -0.412670 23.422083 -1.952469 -4.545708 
0.000000 6.459362 0.000000 -90.001343 -0.002114 46.999653 -0.659064 -0.139722 -28.401102 -0.812227 0.188990 -21.020029 18.218847 0.406759 -20.261230 -11.129360 18.452417 -0.121573 2.790642 -28.388258 0.613955 -54.482666 -46.819626 13.176122 -10.105932 -23.775026 18.109327 -27.695942 -8.903371 7.859488 -2.070436 -20.943953 -6.694089 -28.857573 3.356458 -5.664369 -166.351227 -70.714798 60.107258 6.996825 0.000000 0.000000 -20.993086 8.279175 -20.394178 15.212471 -6.428585 -0.433561 13.611595 2.328721 5.489282 -5.258474 -11.285511 -24.249666 57.715637 4.734636 -0.412670 23.422083 -1.952469 -4.545708 
0.000000 6.459362 0.000000 -90.001343 -0.002114 46.999653 -0.659064 -0.139722 -28.401098 -0.812227 0.188990 -21.020029 18.221315 0.357875 -20.264072 -11.130520 18.328869 -0.122659 2.790642 -28.388254 0.613955 -54.482666 -46.819626 13.176122 -10.106858 -23.967419 18.110332 -27.695942 -8.903371 7.859488 -2.070436 -20.943953 -6.694089 -28.857573 3.356458 -5.664369 -166.351227 -70.714798 60.107258 6.996825 0.000000 0.000000 -20.974529 8.325011 -20.255062 15.212471 -6.428585 -0.433561 13.611595 2.328721 5.489282 -5.258472 -11.285509 -24.249664 57.715637 4.734636 -0.412670 23.422083 -1.952469 -4.545708 
0.000000 6.459362 0.000000 -90.001343 -0.002114 46.999653 -0.659064 -0.139722 -28.401102 -0.812227 0.188990 -21.020029 18.223793 0.308990 -20.266922 -11.131672 18.205305 -0.123741 2.790642 -28.388256 0.613955 -54.482666 -46.819626 13.176122 -10.107781 -24.159832 18.111338 -27.695942 -8.903371 7.859488 -2.070436 -20.943953 -6.694089 -28.857573 3.356458 -5.664369 -166.351227 -70.714798 60.107258 6.996825 0.000000 0.000000 -20.955858 8.370807 -20.115898 15.212471 -6.428585 -0.433561 13.611595 2.328721 5.489282 -5.258473 -11.285510 -24.249664 57.715637 4.734636 -0.412670 23.422083 -1.952469 -4.545708 
0.000000 6.459362 0.000000 -90.001343 -0.002114 46.999653 -0.659064 -0.139722 -28.401098 -0.812227 0.188990 -21.020029 18.226271 0.260106 -20.269773 -11.132823 18.081743 -0.124820 2.790642 -28.388256 0.613955 -54.482666 -46.819626 13.176122 -10.108705 -24.352272 18.112345 -27.695942 -8.903371 7.859488 -2.070436 -20.943953 -6.694089 -28.857573 3.356458 -5.664369 -166.351227 -70.714798 60.107258 6.996825 0.000000 0.000000 -20.937071 8.416562 -19.976690 15.212471 -6.428585 -0.433561 13.611595 2.328721 5.489282 -5.258473 -11.285510 -24.249664 57.715637 4.734636 -0.412670 23.422083 -1.952469 -4.545708 
